<?xml version="1.0" standalone="no"?>
<!DOCTYPE svg PUBLIC "-//W3C//DTD SVG 20010904//EN"
 "http://www.w3.org/TR/2001/REC-SVG-20010904/DTD/svg10.dtd">
<svg version="1.0" xmlns="http://www.w3.org/2000/svg"
 width="512.000000pt" height="512.000000pt" viewBox="0 0 512.000000 512.000000"
 preserveAspectRatio="xMidYMid meet">
<metadata>
Created by potrace 1.11, written by Peter Selinger 2001-2013
</metadata>
<g transform="translate(0.000000,512.000000) scale(0.100000,-0.100000)"
fill="#000000" stroke="none">
<path d="M0 2560 l0 -2560 1255 0 c690 0 1255 2 1255 5 0 3 -63 100 -140 215
-77 116 -140 215 -140 220 0 6 -4 10 -9 10 -5 0 -44 48 -87 107 -112 156 -339
438 -474 588 -198 222 -200 226 -159 315 37 81 149 370 149 384 0 7 11 29 24
49 20 29 24 45 20 84 -2 26 -6 71 -9 98 -2 28 -7 88 -11 135 l-6 85 36 -37
c20 -21 41 -38 48 -38 6 0 20 -8 31 -18 20 -17 20 -16 14 19 -3 19 -13 53 -24
75 -15 32 -26 41 -63 52 -74 22 -90 34 -157 112 -67 80 -99 147 -109 233 -4
29 -12 70 -20 92 -16 45 -30 145 -21 145 4 0 15 -16 25 -37 l19 -36 11 31 c6
18 13 32 15 32 2 0 21 -13 41 -29 21 -16 42 -32 49 -34 9 -3 8 -11 -3 -33 -8
-16 -19 -32 -25 -36 -6 -5 -5 -8 3 -8 16 0 16 -32 0 -48 -10 -10 -10 -15 1
-21 15 -10 48 -3 75 15 13 9 25 10 36 4 14 -8 22 0 43 43 l26 52 -21 23 c-12
12 -29 22 -37 22 -11 0 -12 -3 -4 -8 7 -4 9 -13 4 -20 -10 -17 -65 33 -57 53
3 10 -4 17 -21 21 -15 4 -47 22 -71 41 -52 40 -115 73 -137 73 -19 0 -19 14 1
34 18 19 51 20 91 5 41 -15 93 -52 93 -66 0 -19 21 -27 31 -12 6 11 15 6 36
-19 15 -19 61 -67 100 -108 67 -68 93 -86 93 -66 5 115 8 142 18 154 6 8 9 18
5 21 -10 11 61 7 221 -11 152 -18 163 -24 95 -51 -22 -9 -22 -10 -3 -10 31 -1
87 20 101 38 11 14 12 14 13 -3 0 -15 3 -16 15 -6 8 7 15 9 15 5 0 -4 6 -3 13
2 16 13 49 25 43 15 -4 -7 12 -9 103 -13 28 -2 48 -6 45 -10 -2 -4 9 -1 26 7
16 9 40 14 52 13 13 -1 42 1 65 5 30 5 40 11 36 22 -7 19 20 18 58 -1 33 -17
57 -12 40 9 -12 14 4 36 25 36 17 0 -4 -68 -30 -98 -14 -16 -17 -25 -9 -33 6
-6 9 -19 6 -28 -5 -14 -4 -14 9 -1 9 8 23 39 33 68 10 31 21 50 27 46 7 -5 9
2 6 19 -6 32 5 37 78 37 36 0 54 -4 54 -12 0 -7 18 -42 40 -78 22 -36 40 -59
40 -52 0 8 8 5 22 -8 21 -19 65 -29 54 -11 -3 4 31 9 76 10 45 1 88 7 95 13 7
6 27 8 46 4 22 -4 27 -3 17 4 -8 5 -42 9 -75 9 -33 -1 -76 2 -95 6 -19 4 -40
8 -45 8 -18 1 -12 37 6 37 10 0 25 3 35 7 12 4 15 3 10 -5 -5 -8 1 -10 21 -7
91 16 106 17 113 5 5 -8 11 -8 22 4 13 13 19 12 47 -5 18 -11 36 -17 40 -14
10 6 21 -44 21 -96 0 -28 4 -39 15 -39 23 0 54 41 61 79 9 61 25 83 17 26 -9
-74 -19 -94 -55 -110 -18 -8 -26 -14 -18 -15 11 0 12 -2 3 -8 -9 -6 -10 -17
-4 -40 6 -21 6 -32 0 -32 -6 0 -7 -4 -4 -10 3 -5 2 -10 -2 -10 -5 0 -6 -25 -3
-55 6 -55 -10 -115 -31 -115 -5 0 -8 -5 -6 -11 1 -6 -4 -14 -12 -17 -10 -3
-11 0 -5 9 7 12 5 12 -9 0 -20 -16 -23 -26 -4 -15 8 5 8 2 -2 -9 -19 -24 -62
-22 -68 2 -3 12 -11 17 -19 14 -8 -3 -14 0 -14 7 0 6 -4 9 -10 5 -5 -3 -17 7
-27 22 -22 34 -124 135 -130 129 -3 -2 7 -24 21 -49 14 -24 26 -49 26 -56 0
-19 -63 -79 -96 -91 -31 -12 -106 -11 -114 1 -7 11 -90 29 -90 20 0 -4 -8 -7
-17 -7 -10 0 -37 -3 -61 -7 -40 -7 -45 -5 -72 25 -17 18 -30 27 -30 21 0 -18
97 -113 114 -113 15 0 21 -13 16 -35 -1 -5 1 -7 5 -3 4 3 16 -3 27 -14 16 -16
17 -22 7 -34 -7 -8 -8 -14 -3 -13 5 2 26 -5 47 -14 21 -9 53 -15 71 -13 34 5
50 -1 53 -20 3 -17 -52 -37 -100 -36 -23 0 -67 -3 -97 -9 -82 -13 -161 -23
-195 -23 -23 -1 -29 3 -27 17 2 13 -4 17 -30 17 -49 0 -105 -18 -112 -37 -4
-9 -4 -18 -1 -21 13 -14 266 -17 583 -8 56 2 102 2 102 0 0 -2 -19 -14 -42
-28 -44 -25 -109 -40 -166 -38 -35 1 -78 -31 -66 -49 4 -8 8 -8 13 -1 4 6 24
11 46 11 22 -1 55 2 74 5 28 6 32 4 27 -10 -5 -12 -2 -15 10 -10 8 3 21 6 28
6 7 0 23 9 36 20 13 11 27 20 32 20 4 0 8 4 8 10 0 5 -7 7 -16 3 -11 -4 -15
-2 -13 6 3 7 8 11 12 9 4 -2 16 15 27 38 13 25 35 49 60 63 22 12 42 22 45 21
19 -1 25 1 21 9 -3 5 0 14 8 20 8 7 12 21 8 33 -3 14 -1 19 6 14 7 -4 12 -1
12 9 0 9 5 13 10 10 6 -3 10 -2 10 4 0 5 8 8 18 6 9 -2 21 -4 26 -4 5 -1 2 -9
-5 -18 -12 -15 -12 -16 5 -10 16 7 17 5 6 -9 -9 -10 -10 -18 -4 -22 22 -15 -7
-138 -29 -125 -7 3 -9 3 -5 -2 4 -4 -1 -20 -11 -34 -10 -14 -16 -32 -14 -39 3
-7 -2 -21 -11 -31 -9 -10 -16 -25 -14 -32 2 -9 -4 -13 -16 -11 -12 2 -16 -1
-10 -9 11 -18 6 -80 -8 -96 -6 -8 -8 -16 -5 -20 4 -3 -1 -20 -10 -37 -9 -17
-19 -37 -23 -45 -3 -8 -12 -17 -20 -19 -7 -3 -10 0 -6 7 4 6 5 11 2 11 -6 0
-114 -48 -130 -58 -5 -3 -6 1 -1 8 5 8 -6 5 -25 -6 -25 -15 -34 -16 -37 -6 -4
10 -8 10 -20 1 -8 -7 -32 -12 -54 -11 -22 2 -39 -2 -39 -8 0 -5 -5 -10 -11
-10 -5 0 -7 5 -3 11 3 6 -6 3 -22 -7 -15 -11 -25 -13 -21 -6 5 6 4 12 -2 12
-6 0 -11 -5 -11 -11 0 -7 -10 -9 -25 -7 -14 3 -28 2 -31 -3 -3 -5 -31 -6 -62
-2 -31 3 -65 5 -75 5 -9 0 -15 4 -11 9 3 6 -4 7 -20 3 -16 -4 -33 -1 -43 7
-14 12 -16 12 -8 -1 6 -12 5 -12 -5 -3 -7 6 -19 9 -28 6 -11 -5 -13 -3 -7 7 6
10 4 12 -8 7 -9 -3 -17 -1 -19 5 -2 6 -18 11 -36 11 -18 0 -29 4 -25 10 4 6 0
8 -10 4 -10 -3 -17 -2 -17 2 0 5 -10 7 -22 4 -16 -3 -19 -2 -10 5 10 7 4 11
-21 15 -19 3 -46 17 -61 32 -14 14 -31 23 -38 19 -7 -4 -8 -3 -4 5 5 7 -4 13
-25 18 -28 5 -30 8 -15 18 15 12 15 13 0 19 -20 8 -37 -2 -28 -16 9 -15 -11
-3 -58 35 -20 16 -41 26 -47 22 -6 -3 -11 1 -11 9 0 9 -4 16 -10 16 -5 0 -10
-7 -10 -15 0 -21 -7 -19 -40 15 -35 36 -41 17 -8 -25 l21 -27 -24 13 c-27 16
-40 30 -34 39 2 4 -10 4 -28 1 l-32 -5 30 -7 c17 -4 25 -7 18 -8 -13 -1 -11
-13 5 -53 6 -16 16 -28 21 -28 5 0 12 -8 15 -18 3 -9 19 -32 36 -50 17 -19 27
-38 23 -44 -4 -7 0 -9 10 -5 10 3 17 2 17 -3 0 -4 16 -23 35 -41 18 -18 32
-36 29 -41 -3 -5 -2 -8 3 -7 21 4 33 -2 33 -16 0 -8 7 -15 15 -15 8 0 15 -5
15 -11 0 -5 5 -7 12 -3 8 5 9 0 6 -14 -4 -12 -1 -25 4 -29 7 -4 8 -1 3 7 -6 9
-4 11 4 6 7 -5 10 -14 7 -22 -5 -13 26 -38 36 -28 3 2 17 -2 31 -9 15 -8 24
-17 20 -20 -3 -4 -1 -7 5 -7 6 0 9 -6 6 -13 -3 -10 4 -13 25 -12 17 1 28 -2
25 -7 -3 -4 0 -8 6 -8 6 0 8 -5 5 -10 -4 -6 7 -15 23 -21 17 -6 33 -17 36 -25
3 -8 12 -14 21 -14 8 0 15 -4 15 -10 0 -5 -4 -10 -10 -10 -5 0 -10 -4 -10 -10
0 -5 7 -6 17 -3 12 5 14 3 8 -7 -5 -8 -4 -11 3 -6 6 3 13 2 17 -4 9 -14 25
-12 21 3 -1 6 -1 9 1 5 2 -4 12 -4 21 -1 9 3 5 -3 -10 -14 -26 -18 -26 -19 -8
-31 11 -6 25 -9 32 -7 8 3 23 -3 34 -13 13 -12 27 -16 39 -12 24 9 51 2 66
-16 8 -10 8 -14 0 -14 -6 0 -11 4 -11 8 0 5 -7 9 -15 9 -8 0 -15 -4 -15 -9 0
-4 -13 -8 -29 -8 -36 0 -49 -24 -13 -27 18 -1 21 1 11 8 -11 7 -11 9 4 9 9 0
17 -6 17 -12 0 -8 7 -5 15 6 11 15 15 16 15 5 0 -8 -6 -21 -12 -28 -10 -11
-10 -13 0 -7 19 11 14 -15 -5 -30 -17 -13 -17 -13 0 -14 9 0 17 -5 17 -11 0
-5 -5 -7 -12 -3 -7 4 -8 3 -4 -5 5 -7 16 -9 29 -5 20 6 20 6 4 -10 -9 -10 -15
-22 -12 -27 9 -13 -7 -11 -27 5 -10 7 -14 17 -10 21 4 5 1 5 -6 1 -8 -5 -21
-2 -30 7 -20 17 -72 44 -57 30 32 -31 239 -162 248 -156 5 3 7 1 4 -5 -7 -9
76 -72 95 -72 5 0 11 8 15 18 12 37 58 137 64 142 18 15 32 60 32 107 0 30 4
56 8 59 5 3 9 -10 9 -28 0 -25 3 -29 10 -18 15 24 12 210 -5 266 -18 59 -18
64 -5 64 19 0 50 -89 100 -284 27 -105 65 -237 85 -294 28 -79 35 -111 30
-140 -7 -41 -37 -103 -32 -67 1 11 5 25 9 30 3 6 9 24 12 42 9 40 -15 67 -76
84 -51 13 -134 6 -157 -15 -9 -8 -30 -22 -46 -30 -17 -9 -23 -16 -14 -16 22 0
90 -55 81 -65 -4 -5 -2 -5 5 -1 14 7 136 -45 148 -63 4 -7 -10 -4 -32 7 -21
11 -58 25 -83 32 -25 6 -63 24 -85 38 -35 23 -50 27 -117 27 -42 0 -71 3 -65
7 7 4 26 8 44 8 33 0 53 15 31 23 -10 3 -10 9 1 28 14 23 14 23 -10 6 -13 -9
-93 -63 -176 -119 -84 -56 -151 -103 -150 -104 1 -1 90 -12 197 -24 298 -32
440 -61 409 -81 -10 -8 -7 -8 10 -4 17 5 22 4 16 -5 -5 -8 -4 -11 2 -7 6 4 18
-2 28 -13 23 -25 19 -25 -38 0 -61 27 -112 36 -346 60 -191 20 -261 33 -261
50 0 27 -40 13 -125 -41 -52 -34 -95 -62 -95 -64 0 -1 28 -1 63 1 144 7 166 6
200 -11 20 -9 45 -32 57 -52 11 -19 24 -32 28 -29 5 3 26 -13 47 -34 22 -22
45 -40 52 -40 7 0 36 -16 64 -36 30 -21 55 -32 60 -27 5 5 -6 16 -28 26 -36
16 -133 87 -119 87 4 0 33 -13 65 -30 32 -16 79 -34 105 -41 25 -6 46 -17 46
-23 0 -7 -13 -25 -30 -41 -16 -16 -30 -38 -30 -48 0 -15 10 -8 42 28 24 27 46
57 50 67 4 11 12 16 18 13 5 -3 10 -1 10 4 0 6 4 11 10 11 16 0 -8 -49 -55
-113 -51 -66 -55 -93 -29 -173 19 -56 41 -86 29 -39 -4 17 -11 46 -15 66 -4
19 -10 41 -14 47 -4 7 -4 21 -1 33 6 18 8 19 19 4 13 -19 73 -15 68 4 -2 9 3
9 18 1 13 -7 20 -7 20 0 0 14 26 12 39 -3 8 -10 7 -17 -1 -25 -7 -7 -9 -12 -5
-12 4 0 -6 -27 -23 -60 -49 -96 -34 -83 27 25 71 126 93 189 93 264 0 33 5 63
11 67 7 4 9 28 5 68 l-6 61 73 -145 c40 -80 81 -163 91 -185 10 -22 29 -60 42
-85 20 -35 24 -57 22 -98 l-3 -52 823 0 822 0 0 2560 0 2560 -2560 0 -2560 0
0 -2560z m2483 2064 c-3 -9 2 -14 12 -14 9 0 14 4 11 9 -3 5 1 11 9 15 8 3 15
1 15 -5 0 -6 6 -9 13 -6 6 2 25 -9 42 -24 l30 -29 -38 5 c-21 3 -37 1 -37 -5
0 -6 17 -10 38 -10 21 0 42 -3 46 -7 7 -8 12 -9 38 -12 11 -1 2 -16 -10 -16
-12 0 -61 -48 -57 -55 2 -4 -9 -7 -26 -7 l-30 0 37 38 c19 20 32 39 27 42 -20
12 -86 12 -91 -1 -3 -9 3 -11 22 -6 31 7 36 -11 5 -21 -15 -5 -18 -10 -9 -20
9 -11 6 -16 -12 -25 -22 -11 -22 -10 -4 4 11 9 16 16 10 16 -5 0 -28 -22 -52
-50 -24 -27 -53 -55 -65 -61 -21 -12 -21 -11 -4 8 9 11 14 23 10 26 -3 4 -1 8
5 8 7 1 17 2 23 3 6 0 19 12 27 26 l16 25 -24 -20 c-13 -11 -20 -14 -16 -7 15
26 -20 11 -58 -25 -22 -21 -34 -29 -26 -18 8 11 21 26 29 33 13 11 13 12 -1
12 -8 0 -21 -7 -28 -15 -7 -8 -17 -15 -24 -15 -6 0 4 10 21 23 18 12 33 26 33
30 0 5 -4 6 -8 3 -5 -3 -34 -9 -65 -14 -53 -8 -55 -8 -46 10 5 10 14 18 19 18
6 0 10 5 10 10 0 6 -12 8 -27 5 -27 -6 -27 -6 -9 9 20 16 20 16 0 17 -10 1
-41 1 -69 0 -54 -2 -57 8 -5 14 52 7 45 12 -16 14 -60 1 -91 11 -36 11 19 0
32 5 32 13 0 9 2 9 8 0 9 -14 117 -13 116 2 0 6 -13 13 -30 17 -22 5 -15 6 26
6 124 0 126 0 104 16 -17 13 -14 14 38 14 43 -1 55 -4 51 -14z m301 -38 c-3
-9 -12 -16 -20 -16 -11 0 -10 4 4 18 20 22 25 21 16 -2z m82 -28 c-10 -39 -11
-40 -14 -15 -2 15 -9 27 -15 27 -7 0 -1 7 13 14 14 8 26 14 26 15 1 1 -3 -18
-10 -41z m-126 -26 c0 -10 -4 -9 -16 2 -8 9 -20 16 -25 16 -5 0 -9 4 -9 9 0 5
11 4 25 -2 14 -7 25 -18 25 -25z m-501 -18 c8 -7 -94 -2 -124 6 -18 5 1 6 45
3 41 -3 77 -7 79 -9z m771 -30 c0 -3 -13 3 -30 13 -16 9 -30 21 -30 26 0 5 14
-1 30 -13 17 -12 30 -24 30 -26z m-306 -7 c-34 -17 -45 -37 -21 -37 6 0 25 7
41 15 15 8 30 15 33 15 10 0 -4 -25 -15 -26 -7 -1 -17 -2 -23 -3 -5 0 -8 -5
-4 -10 3 -5 0 -13 -6 -17 -8 -4 -9 -3 -5 4 9 15 -4 15 -41 1 -22 -8 -24 -12
-13 -19 11 -7 6 -9 -17 -7 -17 1 -29 6 -25 11 3 5 -2 6 -12 3 -10 -4 -25 -7
-34 -8 -10 -1 -7 -4 8 -9 23 -7 23 -8 3 -9 -28 -1 -39 -18 -16 -24 10 -2 2 -4
-19 -4 -20 -1 -51 -4 -70 -8 -24 -4 -29 -3 -18 4 8 6 26 11 40 11 27 1 75 30
49 30 -8 1 3 10 24 21 37 19 52 37 21 25 -8 -3 -25 -1 -36 5 -12 7 -18 7 -14
1 3 -6 0 -13 -6 -16 -7 -3 -2 -3 12 0 24 5 24 4 6 -10 -11 -9 -25 -16 -30 -16
-6 0 -5 -4 2 -9 10 -6 2 -11 -25 -15 -21 -4 -62 -21 -91 -37 l-54 -30 19 25
c10 14 21 26 26 26 12 0 111 72 120 86 5 8 22 11 49 9 30 -3 48 1 62 13 18 16
19 16 13 -1 -6 -17 -5 -17 21 2 16 11 34 27 41 35 10 12 16 13 26 3 11 -10 7
-15 -21 -30z m63 11 c-3 -8 -6 -5 -6 6 -1 11 2 17 5 13 3 -3 4 -12 1 -19z
m-537 2 c-8 -5 -19 -10 -25 -10 -5 0 -3 5 5 10 8 5 20 10 25 10 6 0 3 -5 -5
-10z m634 -36 c3 -8 2 -12 -4 -9 -6 3 -10 10 -10 16 0 14 7 11 14 -7z m-519
-4 c-3 -5 -12 -10 -18 -10 -7 0 -6 4 3 10 19 12 23 12 15 0z m-55 -24 c0 -2
-8 -10 -17 -17 -16 -13 -17 -12 -4 4 13 16 21 21 21 13z m-514 -25 c0 -11 -3
-18 -7 -15 -4 2 -9 -3 -13 -11 -3 -8 -10 -15 -16 -15 -15 0 16 51 35 60 1 0 1
-9 1 -19z m974 15 c0 -3 -15 -14 -32 -26 l-33 -22 30 26 c31 27 35 29 35 22z
m-876 -35 c-12 -23 -12 -26 2 -29 13 -3 12 -7 -6 -27 l-21 -23 27 -6 c14 -4
24 -9 22 -12 -3 -2 -17 0 -31 5 -20 8 -28 6 -43 -10 -10 -11 -12 -19 -6 -19 7
0 12 5 12 11 0 5 5 7 10 4 6 -3 10 -15 10 -26 0 -24 6 -24 53 0 30 15 34 20
20 24 -10 3 -3 4 15 4 33 -1 58 -17 28 -17 -20 0 -126 -67 -126 -80 0 -5 -9
-12 -20 -15 -22 -7 -51 -33 -85 -75 -17 -21 -15 -20 16 5 61 52 100 79 130 92
23 10 27 9 22 -3 -3 -8 -8 -14 -12 -14 -3 0 -17 -10 -31 -21 l-25 -20 32 15
c49 24 51 19 5 -15 -23 -17 -40 -34 -37 -39 3 -4 -5 -19 -16 -34 -14 -18 -16
-26 -7 -26 7 -1 0 -12 -17 -25 -16 -14 -25 -25 -20 -25 30 1 68 58 70 104 0
11 6 21 14 24 8 3 11 0 7 -7 -10 -16 6 -13 29 5 20 16 20 16 -2 9 -37 -11 -26
2 23 26 49 25 64 41 46 47 -7 2 -12 11 -12 20 1 15 2 15 11 0 13 -24 44 -24
35 -1 -6 15 -4 14 14 -2 17 -15 20 -16 15 -3 -8 19 21 38 57 38 17 0 19 3 9 9
-11 7 -9 10 8 16 11 3 21 11 21 17 0 5 7 7 15 4 9 -3 18 1 21 8 4 11 13 12 42
3 20 -6 43 -17 50 -24 7 -7 18 -13 23 -13 6 0 7 -4 4 -10 -3 -5 -2 -10 4 -10
5 0 15 8 21 18 10 15 10 14 5 -4 -4 -17 -1 -22 12 -20 10 0 17 -5 15 -11 -1
-7 7 -13 18 -13 29 0 35 3 34 17 -1 7 3 10 8 7 5 -3 19 3 31 14 22 20 87 35
87 20 0 -4 -9 -8 -19 -8 -11 0 -32 -5 -48 -12 l-28 -12 40 -6 40 -7 -37 -2
c-30 -1 -38 -5 -38 -20 0 -11 5 -23 12 -27 7 -5 8 -3 3 6 -6 10 -3 12 13 8 16
-4 19 -2 15 10 -4 9 2 7 16 -7 15 -15 31 -21 47 -18 13 2 21 0 18 -4 -5 -8 12
-13 43 -12 6 0 9 -5 7 -11 -6 -15 48 -17 66 -2 8 7 29 13 45 13 17 0 22 -1 13
-4 -10 -2 -18 -9 -18 -15 0 -6 11 -3 25 6 19 13 30 14 45 6 14 -8 20 -8 20 0
0 6 5 8 10 5 6 -4 8 -10 5 -15 -3 -4 15 -7 40 -5 24 1 42 -1 40 -6 -12 -18 49
0 76 24 31 27 39 25 12 -5 -9 -10 -11 -18 -5 -18 6 0 14 5 17 10 5 8 11 8 19
0 9 -7 30 -7 66 0 74 14 96 11 32 -4 -64 -16 -82 -31 -27 -23 22 4 32 3 22 -1
-15 -6 -9 -17 43 -72 34 -36 77 -89 97 -119 l35 -55 14 25 c16 29 18 20 3 -13
-9 -20 -3 -38 37 -118 26 -52 49 -99 50 -105 2 -5 5 -21 8 -35 3 -14 12 -45
19 -70 7 -25 13 -60 12 -77 0 -18 4 -33 9 -33 5 0 2 -6 -9 -13 -12 -10 -15
-16 -6 -21 8 -5 8 -13 0 -27 -6 -12 -7 -25 -2 -32 5 -7 18 -39 28 -72 11 -33
23 -66 28 -72 15 -20 -15 -25 -77 -14 -31 6 -64 7 -73 4 -11 -4 -14 -3 -9 5 4
7 -6 6 -28 -3 -44 -19 -70 -20 -60 -2 6 9 5 9 -7 0 -16 -13 -59 -7 -59 8 0 5
-12 1 -27 -8 -16 -11 -24 -13 -19 -5 5 8 -8 5 -33 -8 -23 -11 -46 -18 -51 -15
-6 3 -10 -1 -10 -10 0 -10 -5 -13 -12 -9 -7 5 -9 2 -5 -9 4 -11 2 -14 -9 -10
-7 3 -14 0 -14 -6 0 -6 -9 -11 -19 -11 -11 0 -23 -6 -27 -12 -4 -7 -3 -10 1
-5 9 7 45 -20 45 -35 0 -4 -39 -7 -87 -7 -49 1 -80 3 -70 6 21 5 22 17 2 33
-19 16 -357 10 -362 -6 -2 -6 -18 -9 -36 -7 -23 2 -27 1 -14 -5 15 -6 3 -13
-54 -32 -59 -20 -68 -26 -48 -30 20 -5 17 -7 -19 -13 -41 -7 -180 2 -347 23
-120 15 -120 15 -120 47 0 15 3 33 5 38 3 6 5 29 5 53 0 23 4 42 9 42 5 0 2 8
-5 17 -9 11 -10 14 -2 9 9 -5 11 -2 7 8 -3 9 -10 13 -15 10 -5 -3 -6 2 -3 10
3 9 9 16 13 16 3 0 6 14 6 30 0 17 -5 30 -12 30 -16 0 -16 2 -3 34 7 18 6 26
-1 26 -6 0 -9 9 -6 20 4 16 2 20 -12 15 -12 -3 -17 1 -18 15 -1 11 3 20 8 20
6 0 7 -6 3 -12 -5 -9 -2 -9 9 1 18 15 23 26 7 16 -14 -9 -13 8 2 23 20 20 -12
15 -36 -5 -19 -17 -20 -17 -7 -1 7 10 10 25 7 34 -5 14 -4 15 9 4 23 -19 28
-6 7 21 -30 41 -62 106 -62 127 0 11 -6 24 -13 30 -10 9 -11 0 -3 -49 7 -44 7
-62 -2 -71 -9 -9 -12 -3 -13 27 -1 22 -1 44 0 48 1 5 -3 6 -9 2 -6 -4 -8 -16
-4 -28 7 -22 6 -22 -15 -3 -11 11 -21 29 -22 40 0 15 -2 17 -6 6 -4 -8 -12
-21 -20 -28 -7 -8 -11 -23 -8 -33 4 -10 2 -19 -3 -19 -15 0 -23 43 -9 52 8 5
6 9 -6 14 -9 3 -23 1 -30 -5 -10 -7 -17 -7 -24 0 -21 21 -28 0 -27 -84 1 -47
-2 -91 -7 -98 -6 -10 -9 -3 -9 19 0 20 -4 31 -10 27 -5 -3 -10 -19 -10 -35 0
-16 -4 -32 -10 -35 -5 -3 -10 -14 -9 -23 0 -12 3 -11 9 6 5 12 12 22 15 22 4
0 3 -10 -1 -22 -4 -13 -7 -31 -6 -40 0 -11 -5 -15 -14 -11 -8 3 -14 13 -15 22
0 10 -2 11 -6 4 -11 -28 -21 -11 -11 20 5 17 12 41 15 51 4 12 2 17 -4 13 -6
-4 -5 9 3 31 16 45 17 82 4 102 -8 11 -10 6 -7 -20 5 -40 -9 -74 -25 -64 -6 4
-8 -1 -4 -13 4 -13 -1 -29 -12 -44 l-19 -23 1 51 c0 28 4 49 9 46 4 -2 7 3 7
12 0 9 -5 13 -10 10 -7 -5 -9 14 -6 57 3 43 2 54 -3 33 -8 -29 -9 -29 -11 -5
-2 18 -4 20 -7 8 -5 -21 -19 -23 -26 -5 -3 6 -6 -3 -6 -20 -1 -18 -10 -47 -21
-65 -22 -36 -25 -34 -10 6 11 29 2 89 -12 80 -5 -3 -7 5 -4 18 3 12 8 37 10
53 3 17 9 44 14 62 6 17 8 34 5 36 -3 3 0 14 6 24 10 17 10 17 11 -1 0 -11 3
-17 6 -13 11 10 -7 48 -19 41 -7 -4 -9 -4 -5 0 3 4 9 7 13 6 11 -2 71 83 94
134 20 45 20 48 2 32 -16 -14 -15 -10 6 34 13 28 22 54 19 59 -3 4 11 32 32
62 39 56 97 103 118 95 6 -2 22 2 34 11 17 12 19 17 9 24 -12 7 -11 9 1 10 8
1 18 1 23 0 4 0 7 3 7 7 0 5 11 14 25 20 36 17 44 15 17 -4 -12 -8 -20 -19
-17 -24 3 -5 1 -11 -5 -15 -6 -4 -7 -12 -4 -18 4 -7 4 -9 -1 -5 -4 4 -15 2
-23 -5 -13 -10 -14 -9 -7 2 5 9 4 12 -3 8 -5 -4 -8 -16 -5 -28 3 -11 9 -16 12
-10 4 6 12 6 21 1 9 -5 18 -4 24 4 6 7 24 18 39 24 23 10 28 10 24 0 -2 -7 -9
-12 -15 -11 -5 1 -17 -6 -26 -16 -16 -17 -15 -18 10 -13 19 3 25 1 20 -7 -4
-6 -12 -9 -17 -5 -5 3 -17 0 -26 -8 -12 -9 -15 -9 -9 0 4 6 3 12 -2 12 -15 0
-33 -26 -24 -35 4 -5 2 -5 -5 -1 -12 7 -26 -9 -30 -33 -1 -7 -7 -19 -14 -25
-9 -8 -10 -8 -5 2 4 6 4 12 -1 11 -12 0 -56 -59 -56 -75 0 -8 -4 -14 -9 -14
-5 0 -7 -17 -4 -37 2 -21 0 -46 -5 -55 -6 -12 -6 -18 1 -18 5 0 10 3 10 8 1 4
12 21 26 37 15 17 24 22 20 13 -3 -10 -1 -18 5 -18 10 0 14 7 24 55 6 29 6 29
-9 10 -9 -12 -15 -15 -16 -7 0 10 -5 10 -21 2 -11 -7 -23 -9 -27 -6 -3 3 -1 6
5 6 6 0 13 14 17 31 3 17 10 28 16 24 6 -4 9 -2 8 3 -3 10 1 12 21 12 5 0 7
-10 4 -22 -4 -20 -3 -21 7 -5 6 9 9 21 6 26 -3 5 14 28 39 52 43 42 73 54 86
35 4 -5 13 2 20 15 11 22 11 23 -5 10 -14 -12 -16 -11 -13 7 2 12 7 25 12 29
4 5 5 1 0 -7 -7 -13 -6 -13 6 -1 11 10 11 15 2 18 -10 3 -10 10 -2 24 5 11 14
17 20 14 5 -4 7 -10 4 -15 -9 -15 23 -19 35 -4 8 9 9 14 2 14 -6 0 -13 -6 -15
-12 -4 -8 -6 -7 -6 3 -1 9 -8 22 -16 29 -8 7 -15 18 -15 24 0 6 8 1 18 -12 14
-18 20 -20 30 -10 6 6 12 19 12 28 0 9 6 17 14 17 11 0 11 -4 0 -26z m370 21
c2 -4 -12 -6 -32 -4 -62 6 -69 10 -20 11 26 0 49 -3 52 -7z m-157 -24 c-3 -8
-6 -5 -6 6 -1 11 2 17 5 13 3 -3 4 -12 1 -19z m128 -8 c-3 -5 -12 -10 -18 -10
-7 0 -6 4 3 10 19 12 23 12 15 0z m815 -40 c0 -13 -1 -13 -10 0 -5 8 -10 22
-10 30 0 13 1 13 10 0 5 -8 10 -22 10 -30z m-1250 15 c-7 -9 -15 -13 -19 -10
-3 3 1 10 9 15 21 14 24 12 10 -5z m912 1 c7 4 8 2 4 -5 -9 -13 -26 -5 -25 12
0 9 2 8 6 -1 2 -6 10 -9 15 -6z m-956 -22 c-4 -9 -9 -15 -11 -12 -3 3 -3 13 1
22 4 9 9 15 11 12 3 -3 3 -13 -1 -22z m458 18 c2 -4 -5 -9 -17 -9 -17 -2 -19
0 -7 7 18 12 18 12 24 2z m-99 -12 c3 -5 1 -10 -4 -10 -6 0 -11 5 -11 10 0 6
2 10 4 10 3 0 8 -4 11 -10z m42 -6 c-3 -3 -12 -4 -19 -1 -8 3 -5 6 6 6 11 1
17 -2 13 -5z m467 -28 c49 -20 45 -27 -4 -10 -23 8 -51 12 -63 9 -12 -3 -47 2
-77 10 l-55 14 82 -4 c45 -2 98 -11 117 -19z m429 -6 c3 -11 1 -20 -4 -20 -5
0 -9 9 -9 20 0 11 2 20 4 20 2 0 6 -9 9 -20z m-676 -26 c-3 -3 -12 -4 -19 -1
-8 3 -5 6 6 6 11 1 17 -2 13 -5z m893 -100 c0 -2 -10 -8 -21 -15 -13 -6 -19
-7 -15 -1 3 6 0 12 -6 15 -7 2 -1 4 15 4 15 0 27 -1 27 -3z m107 -56 c-3 -8
-6 -5 -6 6 -1 11 2 17 5 13 3 -3 4 -12 1 -19z m18 -28 c3 -5 -1 -10 -9 -10 -9
0 -16 5 -16 10 0 6 4 10 9 10 6 0 13 -4 16 -10z m-1775 -13 c0 -2 -10 -12 -22
-23 l-23 -19 19 23 c18 21 26 27 26 19z m1839 -111 c28 -51 51 -102 51 -112 0
-16 -2 -17 -11 -4 -8 11 -9 8 -4 -13 4 -21 3 -27 -6 -21 -7 4 -5 -3 4 -16 11
-16 13 -28 7 -40 -5 -10 -6 -21 -2 -25 4 -5 1 -5 -6 -1 -7 4 -10 12 -7 17 4 5
2 9 -2 9 -5 0 -9 10 -10 22 -1 12 -12 31 -25 41 -13 10 -16 15 -8 11 8 -4 -4
10 -27 30 -48 42 -49 45 -27 72 8 10 13 13 9 7 -8 -16 11 -17 21 -1 4 7 16 -6
30 -33 38 -73 27 -26 -16 67 -22 48 -40 89 -40 91 0 17 26 -22 69 -101z m-183
53 c16 -16 22 -28 14 -24 -13 5 -56 55 -47 55 2 0 16 -14 33 -31z m-1856 17
c0 -2 -8 -10 -17 -17 -16 -13 -17 -12 -4 4 13 16 21 21 21 13z m-106 -228 c-1
-13 -3 -25 -3 -27 -1 -3 -6 0 -12 6 -12 12 -6 43 9 43 5 0 8 -10 6 -22z m2148
-88 c22 -36 20 -35 -22 14 -14 16 -19 27 -12 25 7 -3 23 -20 34 -39z m-2086
-108 c0 -21 -5 -39 -10 -39 -7 0 -10 16 -8 39 5 49 17 49 18 0z m294 28 c0 -5
-4 -10 -10 -10 -5 0 -10 5 -10 10 0 6 5 10 10 10 6 0 10 -4 10 -10z m-97 -32
c-8 -46 -13 -48 -13 -5 0 21 4 37 10 37 5 0 7 -14 3 -32z m192 -30 c-7 -32
-12 -31 -13 2 0 17 3 28 8 25 5 -3 7 -15 5 -27z m1775 12 c6 -11 8 -20 6 -20
-3 0 -10 9 -16 20 -6 11 -8 20 -6 20 3 0 10 -9 16 -20z m-2157 -55 c-7 -21
-13 -19 -13 6 0 11 4 18 10 14 5 -3 7 -12 3 -20z m197 21 c0 -3 -4 -8 -10 -11
-5 -3 -10 -1 -10 4 0 6 5 11 10 11 6 0 10 -2 10 -4z m120 -33 c0 -10 -4 -14
-8 -8 -4 6 -11 13 -16 18 -5 4 -2 7 7 7 10 0 17 -8 17 -17z m-140 -37 c-6 -20
-15 -38 -20 -41 -7 -5 -3 14 16 68 12 34 16 8 4 -27z m-174 -11 c0 -22 -3 -31
-8 -23 -10 16 -10 58 0 58 4 0 7 -16 8 -35z m54 -20 c0 -14 -4 -25 -10 -25
-11 0 -14 33 -3 43 11 11 13 8 13 -18z m-25 -55 c-1 -14 -3 -41 -5 -60 l-2
-35 -9 35 c-5 19 -6 46 -2 60 3 14 5 32 4 40 -1 13 0 13 8 0 5 -8 8 -26 6 -40z
m16 -33 c-10 -9 -11 -8 -5 6 3 10 9 15 12 12 3 -3 0 -11 -7 -18z m16 -64 c-3
-10 -5 -2 -5 17 0 19 2 27 5 18 2 -10 2 -26 0 -35z m-57 -86 c0 -2 -17 -19
-37 -38 l-38 -34 34 38 c33 34 41 42 41 34z m-73 -93 c-3 -3 -12 -4 -19 -1 -8
3 -5 6 6 6 11 1 17 -2 13 -5z m1773 -12 c-19 -10 -37 -16 -40 -14 -9 7 34 32
54 32 16 0 12 -5 -14 -18z m403 11 c-7 -2 -21 -2 -30 0 -10 3 -4 5 12 5 17 0
24 -2 18 -5z m92 -44 c10 -30 2 -32 -12 -3 -6 13 -7 24 -3 24 5 0 12 -9 15
-21z m-791 -34 c-4 -8 -8 -15 -10 -15 -2 0 -4 7 -4 15 0 8 4 15 10 15 5 0 7
-7 4 -15z m253 -27 c-3 -8 -6 -5 -6 6 -1 11 2 17 5 13 3 -3 4 -12 1 -19z m483
12 c0 -5 -4 -10 -10 -10 -5 0 -10 5 -10 10 0 6 5 10 10 10 6 0 10 -4 10 -10z
m-2123 -42 c-3 -8 -6 -5 -6 6 -1 11 2 17 5 13 3 -3 4 -12 1 -19z m1148 12 c-3
-5 1 -10 11 -10 13 0 14 -3 4 -15 -7 -8 -19 -15 -26 -15 -17 0 -18 22 -2 38
15 15 21 16 13 2z m925 -10 c0 -5 -7 -7 -15 -4 -8 4 -12 10 -9 15 6 11 24 2
24 -11z m-3063 -238 c29 -39 -3 -92 -56 -92 -34 0 -53 20 -53 57 0 56 74 80
109 35z m2866 -323 c20 -29 37 -62 37 -75 0 -13 0 -27 1 -31 4 -38 -108 57
-116 98 -14 73 27 77 78 8z m-1588 -99 c3 -5 1 -10 -4 -10 -6 0 -11 5 -11 10
0 6 2 10 4 10 3 0 8 -4 11 -10z m472 -430 c4 -12 3 -13 -5 -1 -5 7 -15 10 -21
7 -6 -4 -11 -2 -11 4 0 17 33 8 37 -10z m2033 -41 c0 -11 4 -19 10 -19 5 0 7
-7 4 -15 -4 -8 -1 -15 5 -15 16 0 14 -45 -3 -59 -8 -7 -25 -9 -38 -6 -20 5
-25 13 -26 42 -1 20 3 42 9 49 6 7 8 18 4 24 -3 5 2 10 12 11 10 0 13 3 6 6
-7 2 -13 9 -13 15 0 6 6 6 15 -2 8 -7 15 -21 15 -31z m-1540 -551 c0 -13 -23
-5 -28 10 -2 7 2 10 12 6 9 -3 16 -11 16 -16z m115 -128 c3 -6 -1 -7 -9 -4
-18 7 -21 14 -7 14 6 0 13 -4 16 -10z m40 -78 c-2 -28 -15 -42 -39 -42 -31 0
-37 9 -25 32 7 13 18 18 30 15 10 -3 19 -1 19 4 0 5 4 9 8 9 5 0 8 -8 7 -18z
m118 -114 c-28 -29 -43 -35 -43 -18 0 6 10 15 23 20 18 7 18 9 4 9 -10 1 -15
5 -12 11 3 5 17 9 30 8 l25 -2 -27 -28z m134 -135 c-4 -3 -1 -13 5 -22 10 -13
10 -14 -2 -3 -8 6 -22 12 -33 12 -10 0 -15 5 -12 10 3 6 16 10 27 10 12 0 18
-3 15 -7z m68 -52 c3 -5 2 -12 -3 -15 -5 -3 -9 1 -9 9 0 17 3 19 12 6z m79
-50 c4 -5 -12 -2 -34 6 -22 9 -37 20 -34 24 5 9 59 -14 68 -30z m-244 -75
c138 -24 224 -51 214 -67 -3 -5 1 -6 8 -4 8 3 25 -7 38 -21 14 -15 18 -24 10
-21 -8 3 -42 17 -76 31 -62 26 -175 47 -344 66 -223 24 -246 29 -139 32 l64 1
-45 8 c-31 5 -17 6 45 3 50 -2 151 -15 225 -28z m-342 -79 c10 -12 8 -16 -9
-20 -11 -3 -18 -10 -14 -16 7 -12 -67 -7 -121 8 l-28 7 39 24 c21 13 44 23 51
23 8 0 14 4 14 9 0 11 53 -16 68 -35z m213 -153 c37 -13 100 -29 140 -35 41
-6 85 -14 99 -17 23 -6 22 -6 -10 -10 -29 -4 -32 -6 -15 -12 16 -7 13 -9 -15
-9 -68 -1 -218 52 -276 97 -19 15 -22 21 -9 16 11 -4 50 -18 86 -30z m330 -70
c-12 -19 -19 -40 -16 -45 4 -5 -1 -9 -9 -9 -8 0 -17 -8 -20 -18 -5 -15 -54
-52 -70 -52 -3 0 6 17 20 37 13 20 27 46 30 57 5 20 59 66 77 66 5 0 -1 -16
-12 -36z"/>
<path d="M2314 4578 c-3 -11 -18 -18 -42 -20 -36 -3 -36 -4 10 -8 25 -3 45 -3
42 -1 -2 2 1 10 7 17 7 9 24 11 51 8 26 -4 38 -3 34 4 -3 6 -2 12 4 14 5 1
-15 3 -45 3 -43 0 -56 -4 -61 -17z"/>
<path d="M2453 4589 c14 -8 22 -8 30 0 8 8 3 11 -18 11 -26 -1 -28 -2 -12 -11z"/>
<path d="M2505 4590 c-3 -5 -1 -10 4 -10 6 0 11 5 11 10 0 6 -2 10 -4 10 -3 0
-8 -4 -11 -10z"/>
<path d="M2358 4553 c7 -3 16 -2 19 1 4 3 -2 6 -13 5 -11 0 -14 -3 -6 -6z"/>
<path d="M2617 4542 c2 -3 -9 -19 -24 -35 -22 -24 -24 -27 -7 -19 31 16 49 41
37 51 -5 5 -8 6 -6 3z"/>
<path d="M2355 4490 c-3 -6 1 -7 9 -4 18 7 21 14 7 14 -6 0 -13 -4 -16 -10z"/>
<path d="M2403 4468 c-2 -16 1 -18 10 -9 7 7 8 14 1 21 -6 6 -10 2 -11 -12z"/>
<path d="M2650 4442 c0 -5 -10 -12 -22 -15 -12 -4 -19 -9 -16 -12 3 -4 19 0
34 8 17 9 23 17 15 21 -6 4 -11 3 -11 -2z"/>
<path d="M1657 4333 c3 -7 6 -13 8 -13 1 0 7 6 13 13 8 10 6 13 -7 13 -11 0
-17 -6 -14 -13z"/>
<path d="M1564 4285 c-19 -15 -19 -15 0 -8 18 6 17 3 -5 -26 -38 -52 -59 -85
-59 -96 0 -5 14 11 30 38 17 26 32 47 35 47 10 0 5 -29 -8 -42 -7 -7 -23 -33
-35 -58 -21 -41 -21 -43 -3 -20 11 14 21 29 21 34 0 6 11 21 24 35 13 15 27
37 31 51 7 22 6 23 -9 11 -10 -8 -16 -9 -16 -3 0 6 9 16 20 22 11 6 18 15 15
21 -8 13 -18 11 -41 -6z"/>
<path d="M1634 4228 l-29 -33 33 29 c30 28 37 36 29 36 -2 0 -16 -15 -33 -32z"/>
<path d="M1800 4232 c0 -7 5 -10 10 -7 6 3 10 1 10 -5 0 -6 5 -8 10 -5 18 11
11 34 -10 32 -11 -1 -20 -7 -20 -15z"/>
<path d="M1766 4188 l-19 -33 23 21 c12 12 21 27 19 33 -3 7 -13 -3 -23 -21z"/>
<path d="M2397 4213 c-4 -3 -7 -13 -7 -22 1 -13 3 -13 11 2 11 19 8 33 -4 20z"/>
<path d="M1696 4152 c-20 -27 -20 -27 0 -9 12 9 24 14 28 10 4 -4 4 0 0 10 -8
21 -5 22 -28 -11z"/>
<path d="M1988 4163 c7 -3 16 -2 19 1 4 3 -2 6 -13 5 -11 0 -14 -3 -6 -6z"/>
<path d="M1939 4139 c-13 -11 -17 -18 -9 -14 8 4 3 -3 -11 -14 -20 -16 -25
-27 -21 -51 3 -24 7 -28 18 -20 7 7 10 18 7 26 -4 10 0 12 11 8 11 -4 16 -1
16 10 0 9 6 19 13 22 15 5 20 41 7 49 -4 3 -19 -4 -31 -16z"/>
<path d="M1447 4113 c-4 -3 -7 -11 -7 -16 0 -6 3 -7 7 -4 3 4 13 1 22 -6 14
-11 15 -10 1 8 -8 11 -15 21 -16 23 0 1 -4 -1 -7 -5z"/>
<path d="M1517 4087 l-18 -32 21 21 c13 12 21 27 19 33 -2 6 -12 -4 -22 -22z"/>
<path d="M1753 4074 c-26 -26 -39 -40 -29 -33 11 8 22 13 25 12 3 -2 6 2 6 7
0 6 14 21 30 35 17 13 27 24 23 25 -3 0 -28 -21 -55 -46z"/>
<path d="M1672 3966 c-35 -60 -50 -110 -34 -120 6 -4 8 2 4 16 -3 12 -1 19 5
15 5 -3 15 15 22 41 7 26 19 54 28 64 8 9 13 22 11 28 -2 6 -18 -14 -36 -44z"/>
<path d="M1871 4001 c-7 -5 -11 -13 -7 -19 3 -6 2 -13 -4 -17 -5 -3 -7 -22 -4
-43 7 -44 14 -55 14 -21 0 14 6 31 13 38 10 10 8 11 -8 5 -18 -7 -19 -6 -6 9
8 10 11 20 8 24 -4 3 -2 12 4 20 13 15 10 16 -10 4z"/>
<path d="M1831 3870 c0 -14 4 -32 9 -40 9 -13 10 -13 9 0 -1 8 -5 26 -9 40
l-8 25 -1 -25z"/>
<path d="M1512 3820 c0 -14 2 -19 5 -12 2 6 2 18 0 25 -3 6 -5 1 -5 -13z"/>
<path d="M1397 3823 c-6 -13 -9 -98 -2 -91 8 7 19 98 12 98 -3 0 -8 -3 -10 -7z"/>
<path d="M1591 3814 c0 -11 3 -14 6 -6 3 7 2 16 -1 19 -3 4 -6 -2 -5 -13z"/>
<path d="M1610 3780 c0 -11 2 -20 4 -20 2 0 6 9 9 20 3 11 1 20 -4 20 -5 0 -9
-9 -9 -20z"/>
<path d="M1506 3778 c-11 -35 -13 -58 -7 -63 4 -2 8 1 8 8 0 7 3 25 7 40 6 26
-1 39 -8 15z"/>
<path d="M1767 3751 c-3 -11 0 -22 7 -24 8 -3 7 -9 -3 -20 -15 -18 -7 -107 9
-107 6 0 6 9 1 23 -7 17 -4 29 11 46 11 14 15 27 9 30 -5 4 -12 19 -15 35 -7
37 -12 42 -19 17z"/>
<path d="M1411 3704 c0 -12 7 -28 17 -35 15 -12 16 -12 6 1 -7 8 -14 24 -17
35 -4 19 -5 19 -6 -1z"/>
<path d="M1506 3686 c-9 -14 -16 -31 -16 -38 0 -7 9 2 21 21 23 39 20 54 -5
17z"/>
<path d="M1340 3689 c0 -5 5 -7 10 -4 6 3 10 8 10 11 0 2 -4 4 -10 4 -5 0 -10
-5 -10 -11z"/>
<path d="M1469 3685 c-4 -5 -5 -21 -4 -35 2 -14 4 -38 5 -55 l1 -30 14 25 c7
14 10 29 5 35 -5 5 -10 24 -12 40 -1 17 -6 26 -9 20z"/>
<path d="M1800 3590 c-11 -7 -12 -12 -4 -20 8 -8 13 -6 17 9 3 12 4 21 4 21
-1 0 -9 -5 -17 -10z"/>
<path d="M1475 3549 c-4 -6 -5 -12 -2 -15 2 -3 7 2 10 11 7 17 1 20 -8 4z"/>
<path d="M2577 3156 c-2 -6 -29 -11 -63 -10 -44 1 -51 -1 -29 -6 26 -7 23 -8
-20 -9 -49 -1 -99 -19 -65 -22 60 -7 425 -2 412 5 -10 5 -25 16 -36 25 -10 9
-30 16 -45 17 -15 0 -32 4 -39 8 -7 4 -12 3 -12 -2 0 -4 -22 -6 -50 -2 -32 4
-51 3 -53 -4z"/>
<path d="M2755 1070 c-19 -8 -19 -9 3 -9 12 -1 22 4 22 9 0 6 -1 10 -2 9 -2 0
-12 -4 -23 -9z"/>
<path d="M2748 673 c12 -2 30 -2 40 0 9 3 -1 5 -23 4 -22 0 -30 -2 -17 -4z"/>
<path d="M2833 663 c9 -2 23 -2 30 0 6 3 -1 5 -18 5 -16 0 -22 -2 -12 -5z"/>
<path d="M2893 653 c9 -2 25 -2 35 0 9 3 1 5 -18 5 -19 0 -27 -2 -17 -5z"/>
<path d="M2968 643 c6 -2 18 -2 25 0 6 3 1 5 -13 5 -14 0 -19 -2 -12 -5z"/>
<path d="M3028 633 c7 -3 16 -2 19 1 4 3 -2 6 -13 5 -11 0 -14 -3 -6 -6z"/>
<path d="M2968 373 c7 -3 16 -2 19 1 4 3 -2 6 -13 5 -11 0 -14 -3 -6 -6z"/>
<path d="M2630 2920 c-13 -8 -12 -10 3 -10 20 0 22 -11 5 -28 -21 -21 7 -13
40 12 26 19 29 25 17 30 -9 3 -13 2 -10 -4 3 -6 -1 -10 -9 -10 -9 0 -16 5 -16
10 0 13 -11 13 -30 0z"/>
<path d="M3318 2873 c6 -2 18 -2 25 0 6 3 1 5 -13 5 -14 0 -19 -2 -12 -5z"/>
<path d="M3155 2859 c-4 -6 -5 -12 -2 -15 2 -3 7 2 10 11 7 17 1 20 -8 4z"/>
<path d="M2576 2468 c-25 -29 -46 -59 -46 -66 0 -7 -3 -11 -8 -8 -4 2 -18 -2
-32 -10 -14 -7 -19 -13 -11 -14 11 0 9 -4 -5 -15 -10 -8 -14 -15 -9 -15 6 0
-1 -7 -15 -15 -14 -8 -19 -14 -12 -15 7 0 12 -14 13 -32 0 -32 0 -32 10 -8 6
14 25 41 43 60 35 37 106 135 106 147 0 3 7 15 17 25 9 10 12 18 6 18 -6 0
-31 -24 -57 -52z"/>
<path d="M1890 1841 c0 -6 4 -13 10 -16 6 -3 7 1 4 9 -7 18 -14 21 -14 7z"/>
<path d="M1970 1730 c39 -47 104 -105 140 -125 8 -5 -28 32 -80 83 -52 50 -97
92 -98 92 -2 0 15 -23 38 -50z"/>
<path d="M2130 1586 c0 -2 7 -7 16 -10 8 -3 12 -2 9 4 -6 10 -25 14 -25 6z"/>
<path d="M2378 1443 c7 -3 16 -2 19 1 4 3 -2 6 -13 5 -11 0 -14 -3 -6 -6z"/>
<path d="M2648 1133 c7 -3 16 -2 19 1 4 3 -2 6 -13 5 -11 0 -14 -3 -6 -6z"/>
<path d="M2993 794 c21 -14 41 -23 44 -20 6 6 -56 46 -72 46 -5 0 8 -12 28
-26z"/>
<path d="M2618 623 c6 -2 18 -2 25 0 6 3 1 5 -13 5 -14 0 -19 -2 -12 -5z"/>
<path d="M2693 613 c9 -2 23 -2 30 0 6 3 -1 5 -18 5 -16 0 -22 -2 -12 -5z"/>
<path d="M2793 603 c9 -2 25 -2 35 0 9 3 1 5 -18 5 -19 0 -27 -2 -17 -5z"/>
<path d="M2888 593 c12 -2 30 -2 40 0 9 3 -1 5 -23 4 -22 0 -30 -2 -17 -4z"/>
<path d="M2973 583 c9 -2 23 -2 30 0 6 3 -1 5 -18 5 -16 0 -22 -2 -12 -5z"/>
<path d="M3048 573 c6 -2 18 -2 25 0 6 3 1 5 -13 5 -14 0 -19 -2 -12 -5z"/>
<path d="M3098 563 c7 -3 16 -2 19 1 4 3 -2 6 -13 5 -11 0 -14 -3 -6 -6z"/>
<path d="M3270 401 c7 -14 11 -49 8 -88 -3 -55 -13 -82 -66 -185 -35 -67 -60
-124 -56 -127 15 -15 106 158 129 244 15 60 8 147 -15 168 -10 10 -10 7 0 -12z"/>
<path d="M2953 313 c4 -3 1 -13 -5 -22 -8 -10 -3 -8 12 4 14 11 27 21 29 22 2
2 -6 3 -19 3 -13 0 -20 -3 -17 -7z"/>
<path d="M3323 238 c-6 -33 -30 -99 -52 -145 -23 -47 -41 -87 -41 -89 0 -2 36
-4 79 -4 89 0 83 -5 97 96 8 63 -15 150 -48 182 l-24 21 -11 -61z"/>
<path d="M3205 170 c-9 -16 -13 -30 -11 -30 3 0 12 14 21 30 9 17 13 30 11 30
-3 0 -12 -13 -21 -30z"/>
<path d="M3127 169 c7 -7 15 -10 18 -7 3 3 -2 9 -12 12 -14 6 -15 5 -6 -5z"/>
<path d="M3442 110 c-1 -19 -4 -53 -7 -75 l-5 -40 11 40 c5 22 8 56 6 75 l-4
35 -1 -35z"/>
<path d="M3160 90 c-6 -11 -8 -20 -6 -20 3 0 10 9 16 20 6 11 8 20 6 20 -3 0
-10 -9 -16 -20z"/>
</g>
</svg>
